# xmcd
#
# Track frame offsets: 
#        150
#        25155
#        52830
#        66825
#        91554
#        110497
#        125720
#        138372
#        155355
#        159497
#        180985
#        200160
#        208205
#        227157
#        246625
#        262387
#        280577
#        298660
#        317462
#
# Disc length: 4404 seconds
#
# Revision: 6
# Processed by: cddbd v1.5.2PL0 Copyright (c) Steve Scherf et al.
# Submitted via: ExactAudioCopyFreeDBPlugin 1.0
#
DISCID=19113213
DTITLE=B.B. King - B.B. King:  King of the Blues [box set]
DYEAR=1992
DGENRE=Blues
TTITLE0=Let the Good Times Roll (live with Bobby Bland)
TTITLE1=Don't You Lie to Me
TTITLE2=Mother Fuyer
TTITLE3=Never Make a Move Too Soon
TTITLE4=When it All Comes Down (I'll Still Be Around)
TTITLE5=Better Not Look Down
TTITLE6=Caldonia (live at Ole Miss)
TTITLE7=There Must Be a Better World Somewhere
TTITLE8=Play with Your Poodle (solo) (previously unreleased)
TTITLE9=Darlin' You Know I Love You
TTITLE10=Inflation Blues
TTITLE11=Make Love to Me (rehearsal solo with piano) (previously unrel
TTITLE11=eased)
TTITLE12=Into the Night (from the soundtrack "Into the Night")
TTITLE13=Six Silver Strings
TTITLE14=When Love Comes to Town (with U2)
TTITLE15=Right Time, Wrong Place (from the soundtrack "Air America" wi
TTITLE15=th Bonnie Raitt)
TTITLE16=Many Miles Travelled (previously unreleased)
TTITLE17=I'm Moving On
TTITLE18=Since I Met You Baby (with Gary Moore)
EXTD=
EXTT0=
EXTT1=
EXTT2=
EXTT3=
EXTT4=
EXTT5=
EXTT6=
EXTT7=
EXTT8=
EXTT9=
EXTT10=
EXTT11=
EXTT12=
EXTT13=
EXTT14=
EXTT15=
EXTT16=
EXTT17=
EXTT18=
PLAYORDER=
